<svg width="32" height="32" viewBox="0 0 32 32" fill="none" xmlns="http://www.w3.org/2000/svg">
<g clip-path="url(#clip0_40_8)">
<path d="M16.0023 31.9958C13.6598 32.0441 11.3298 31.6345 9.13724 30.7892C7.26759 30.0654 5.57479 28.9328 4.17697 27.4704C2.77915 26.008 1.70999 24.251 1.04411 22.3221C-0.342177 18.2382 -0.342177 13.7953 1.04411 9.71143C1.70924 7.78159 2.77809 6.02365 4.17596 4.56045C5.57384 3.09725 7.26703 1.96408 9.13724 1.24011C13.5752 -0.390908 18.4294 -0.390908 22.8673 1.24011C24.7376 1.9631 26.4308 3.09598 27.8281 4.55936C29.2254 6.02273 30.2931 7.78118 30.9564 9.71143C32.3481 13.7943 32.3481 18.2392 30.9564 22.3221C30.2921 24.2513 29.224 26.0086 27.8268 27.4712C26.4295 28.9337 24.7369 30.0662 22.8673 30.7892C20.6739 31.6314 18.3445 32.0408 16.0023 31.9958ZM9.91912 19.8963C9.86914 19.8964 9.82046 19.9127 9.78004 19.9428C9.73961 19.9729 9.70949 20.0152 9.69398 20.0639C9.57373 20.5127 9.34998 20.9254 9.04154 21.2673C8.73309 21.6092 8.34896 21.8703 7.92143 22.0288H7.8723C7.8252 22.0448 7.78433 22.0758 7.75562 22.1173C7.72691 22.1587 7.71185 22.2084 7.71265 22.2592C7.71142 22.3096 7.72637 22.359 7.75521 22.3999C7.78404 22.4408 7.82518 22.4708 7.8723 22.4855C8.34717 22.6481 8.77109 22.9373 9.1004 23.3234C9.37545 23.6568 9.58031 24.0448 9.70216 24.4629C9.71691 24.5112 9.74626 24.5535 9.78599 24.5836C9.82573 24.6137 9.87378 24.6302 9.92322 24.6305C9.95889 24.6349 9.99505 24.629 10.0276 24.6135C10.0602 24.5979 10.0878 24.5733 10.1074 24.5425C10.1251 24.5184 10.1389 24.4915 10.1484 24.4629L10.2016 24.3163C10.2261 24.2409 10.2507 24.1613 10.2916 24.0649C10.36 23.9063 10.4407 23.7536 10.5332 23.6083C10.5618 23.5664 10.5946 23.5161 10.6355 23.4616C10.8036 23.218 11.0097 23.0043 11.2455 22.829C11.431 22.7026 11.6302 22.5986 11.839 22.519C12.0192 22.4478 12.1092 22.4142 12.1092 22.2467C12.1094 22.196 12.0941 22.1466 12.0655 22.1053C12.0369 22.0639 11.9963 22.0328 11.9496 22.0162C11.5087 21.8665 11.111 21.6071 10.7924 21.2612C10.4737 20.9153 10.2439 20.4938 10.1238 20.0346C10.1078 19.9874 10.078 19.9464 10.0385 19.9171C9.99893 19.8879 9.95154 19.8719 9.90275 19.8712L9.91912 19.8963ZM11.1186 15.6481H11.0858L10.9262 15.69H10.8361H10.8115H10.5618C10.5069 15.6991 10.4571 15.7284 10.4217 15.7723C10.3863 15.8162 10.3677 15.8718 10.3694 15.9288C10.3685 15.9819 10.3849 16.0338 10.4161 16.0763C10.4472 16.1188 10.4913 16.1494 10.5414 16.1634H10.5618C13.6239 16.7415 15.6338 18.9159 16.2192 22.2886C16.2294 22.3437 16.2577 22.3937 16.2994 22.4303C16.341 22.4668 16.3936 22.4878 16.4485 22.4896C16.5038 22.488 16.557 22.4672 16.5994 22.4307C16.6417 22.3942 16.6708 22.3441 16.6818 22.2886C16.8532 21.2093 17.2257 20.1739 17.7789 19.2385C18.3186 18.3342 19.0681 17.5801 19.9608 17.0432C20.7027 16.608 21.5131 16.3089 22.3556 16.1592C22.41 16.1487 22.4591 16.1191 22.4945 16.0755C22.5298 16.0319 22.5491 15.977 22.5491 15.9204C22.5491 15.8637 22.5298 15.8089 22.4945 15.7653C22.4591 15.7217 22.41 15.6921 22.3556 15.6816C21.9753 15.6115 21.6005 15.5135 21.234 15.3883C20.0141 14.9842 18.9432 14.2098 18.1637 13.1678C17.3914 12.101 16.8816 10.8593 16.6777 9.54804C16.6703 9.49068 16.6427 9.43805 16.6001 9.39993C16.5576 9.36181 16.503 9.3408 16.4464 9.3408C16.3899 9.3408 16.3353 9.36181 16.2927 9.39993C16.2502 9.43805 16.2226 9.49068 16.2152 9.54804C16.0093 10.901 15.479 12.1806 14.6718 13.2726C13.8651 14.3076 12.7724 15.0697 11.5361 15.4595H11.442H11.4133H11.3887L11.2291 15.5056H11.1718L11.1186 15.6481ZM6.74246 8.84C6.69233 8.83996 6.64357 8.85673 6.60365 8.88776C6.56372 8.91878 6.53483 8.96234 6.52141 9.01177C6.4106 9.41047 6.21926 9.78094 5.95976 10.0992C5.70026 10.4175 5.37839 10.6764 5.01494 10.8594L4.81845 10.9432L4.7243 10.9809C4.68719 10.9937 4.65353 11.0152 4.62605 11.0437C4.60533 11.0651 4.58917 11.0907 4.5786 11.1188C4.56803 11.147 4.56328 11.177 4.56464 11.2071C4.56563 11.2575 4.58138 11.3064 4.60985 11.3474C4.63832 11.3885 4.67819 11.4199 4.7243 11.4375C5.16376 11.5899 5.56001 11.8502 5.87832 12.1957C6.19663 12.5412 6.42728 12.9613 6.55006 13.4192C6.56518 13.4676 6.59451 13.5101 6.63407 13.5408C6.67363 13.5716 6.72149 13.5891 6.77112 13.591C6.80185 13.5922 6.83247 13.5864 6.86077 13.5741C6.88908 13.5618 6.91438 13.5432 6.93486 13.5198C6.96304 13.4926 6.98295 13.4577 6.99217 13.4192V13.3857C6.99217 13.3522 7.02083 13.3145 7.03311 13.2768C7.05358 13.2181 7.07405 13.1511 7.1027 13.0757C7.29621 12.5705 7.62902 12.1339 8.06061 11.8188L8.10564 11.7853C8.28788 11.6557 8.48611 11.5515 8.69513 11.4752C8.87934 11.404 8.9694 11.3663 8.9694 11.2029C8.96928 11.1518 8.95339 11.1019 8.92399 11.0606C8.89459 11.0192 8.85317 10.9884 8.80565 10.9725C8.36606 10.8212 7.96977 10.5612 7.65198 10.2155C7.33419 9.86978 7.10473 9.44911 6.98398 8.99083C6.96769 8.9435 6.93793 8.90226 6.89853 8.87239C6.85914 8.84252 6.81191 8.82541 6.76293 8.82324L6.74246 8.84Z" fill="#242B47"/>
</g>
<defs>
<clipPath id="clip0_40_8">
<rect width="32" height="32" fill="white"/>
</clipPath>
</defs>
</svg>
